{
	"asset":{
		"generator":"Khronos glTF Blender I/O v4.0.44",
		"version":"2.0"
	},
	"extensionsUsed":[
		"KHR_materials_specular",
		"KHR_materials_ior"
	],
	"scene":0,
	"scenes":[
		{
			"name":"Scene",
			"nodes":[
				0
			]
		}
	],
	"nodes":[
		{
			"mesh":0,
			"name":"Grijparm",
			"rotation":[
				0.5,
				-0.4999999403953552,
				-0.5,
				0.5000000596046448
			],
			"translation":[
				-0.00033950808574445546,
				47.343109130859375,
				30.892894744873047
			]
		}
	],
	"materials":[
		{
			"doubleSided":true,
			"extensions":{
				"KHR_materials_specular":{
					"specularFactor":0
				},
				"KHR_materials_ior":{
					"ior":1.4500000476837158
				}
			},
			"name":"GrijparmMaterial0.001",
			"pbrMetallicRoughness":{
				"baseColorFactor":[
					0.800000011920929,
					0.800000011920929,
					0.800000011920929,
					1
				],
				"metallicFactor":0
			}
		}
	],
	"meshes":[
		{
			"name":"Grijparm.001",
			"primitives":[
				{
					"attributes":{
						"POSITION":0,
						"NORMAL":1
					},
					"indices":2,
					"material":0
				}
			]
		}
	],
	"accessors":[
		{
			"bufferView":0,
			"componentType":5126,
			"count":6267,
			"max":[
				125,
				-1.9073486328125e-06,
				34.000003814697266
			],
			"min":[
				-25,
				-84,
				-33.999996185302734
			],
			"type":"VEC3"
		},
		{
			"bufferView":1,
			"componentType":5126,
			"count":6267,
			"type":"VEC3"
		},
		{
			"bufferView":2,
			"componentType":5123,
			"count":18192,
			"type":"SCALAR"
		}
	],
	"bufferViews":[
		{
			"buffer":0,
			"byteLength":75204,
			"byteOffset":0,
			"target":34962
		},
		{
			"buffer":0,
			"byteLength":75204,
			"byteOffset":75204,
			"target":34962
		},
		{
			"buffer":0,
			"byteLength":36384,
			"byteOffset":150408,
			"target":34963
		}
	],
	"buffers":[
		{
			"byteLength":186792,
			"uri":"Grijparm001.bin"
		}
	]
}
