{
	"asset":{
		"generator":"Khronos glTF Blender I/O v4.0.44",
		"version":"2.0"
	},
	"extensionsUsed":[
		"KHR_materials_specular",
		"KHR_materials_ior"
	],
	"scene":0,
	"scenes":[
		{
			"name":"Scene",
			"nodes":[
				0
			]
		}
	],
	"nodes":[
		{
			"mesh":0,
			"name":"wagen",
			"rotation":[
				-0.7071068286895752,
				0,
				0,
				0.7071068286895752
			]
		}
	],
	"materials":[
		{
			"doubleSided":true,
			"extensions":{
				"KHR_materials_specular":{
					"specularFactor":0
				},
				"KHR_materials_ior":{
					"ior":1.4500000476837158
				}
			},
			"name":"assemblage__1_Material0",
			"pbrMetallicRoughness":{
				"baseColorFactor":[
					0.800000011920929,
					0.4,
					0,
					1
				],
				"metallicFactor":0
			}
		},
		{
			"doubleSided":true,
			"extensions":{
				"KHR_materials_specular":{
					"specularFactor":0
				},
				"KHR_materials_ior":{
					"ior":1.4500000476837158
				}
			},
			"name":"assemblage__1_Material1",
			"pbrMetallicRoughness":{
				"baseColorFactor":[
					0.800000011920929,
					0.4,
					0,
					1
				],
				"metallicFactor":0
			}
		},
		{
			"doubleSided":true,
			"extensions":{
				"KHR_materials_specular":{
					"specularFactor":0
				},
				"KHR_materials_ior":{
					"ior":1.4500000476837158
				}
			},
			"name":"assemblage__1_Material2",
			"pbrMetallicRoughness":{
				"baseColorFactor":[
					0.800000011920929,
					0.4,
					0,
					1
				],
				"metallicFactor":0
			}
		}
	],
	"meshes":[
		{
			"name":"wagen",
			"primitives":[
				{
					"attributes":{
						"POSITION":0,
						"NORMAL":1
					},
					"indices":2,
					"material":0
				},
				{
					"attributes":{
						"POSITION":3,
						"NORMAL":4
					},
					"indices":5,
					"material":1
				},
				{
					"attributes":{
						"POSITION":6,
						"NORMAL":7
					},
					"indices":8,
					"material":2
				}
			]
		}
	],
	"accessors":[
		{
			"bufferView":0,
			"componentType":5126,
			"count":684,
			"max":[
				90.78472137451172,
				57.91160583496094,
				2.757904052734375
			],
			"min":[
				-130.76528930664062,
				-65.1657943725586,
				-1.2421112060546875
			],
			"type":"VEC3"
		},
		{
			"bufferView":1,
			"componentType":5126,
			"count":684,
			"type":"VEC3"
		},
		{
			"bufferView":2,
			"componentType":5123,
			"count":972,
			"type":"SCALAR"
		},
		{
			"bufferView":3,
			"componentType":5126,
			"count":1216,
			"max":[
				99.2347183227539,
				76.37290954589844,
				2.757904052734375
			],
			"min":[
				-140.7652587890625,
				-83.62709045410156,
				-1.2421112060546875
			],
			"type":"VEC3"
		},
		{
			"bufferView":4,
			"componentType":5126,
			"count":1216,
			"type":"VEC3"
		},
		{
			"bufferView":5,
			"componentType":5123,
			"count":3780,
			"type":"SCALAR"
		},
		{
			"bufferView":6,
			"componentType":5126,
			"count":1192,
			"max":[
				107.2347183227539,
				46.37290954589844,
				38.757904052734375
			],
			"min":[
				-64.7652816772461,
				-53.62709426879883,
				-25.242111206054688
			],
			"type":"VEC3"
		},
		{
			"bufferView":7,
			"componentType":5126,
			"count":1192,
			"type":"VEC3"
		},
		{
			"bufferView":8,
			"componentType":5123,
			"count":2400,
			"type":"SCALAR"
		}
	],
	"bufferViews":[
		{
			"buffer":0,
			"byteLength":8208,
			"byteOffset":0,
			"target":34962
		},
		{
			"buffer":0,
			"byteLength":8208,
			"byteOffset":8208,
			"target":34962
		},
		{
			"buffer":0,
			"byteLength":1944,
			"byteOffset":16416,
			"target":34963
		},
		{
			"buffer":0,
			"byteLength":14592,
			"byteOffset":18360,
			"target":34962
		},
		{
			"buffer":0,
			"byteLength":14592,
			"byteOffset":32952,
			"target":34962
		},
		{
			"buffer":0,
			"byteLength":7560,
			"byteOffset":47544,
			"target":34963
		},
		{
			"buffer":0,
			"byteLength":14304,
			"byteOffset":55104,
			"target":34962
		},
		{
			"buffer":0,
			"byteLength":14304,
			"byteOffset":69408,
			"target":34962
		},
		{
			"buffer":0,
			"byteLength":4800,
			"byteOffset":83712,
			"target":34963
		}
	],
	"buffers":[
		{
			"byteLength":88512,
			"uri":"Wagen.bin"
		}
	]
}
