{
	"asset":{
		"generator":"Khronos glTF Blender I/O v4.0.44",
		"version":"2.0"
	},
	"extensionsUsed":[
		"KHR_materials_specular",
		"KHR_materials_ior"
	],
	"scene":0,
	"scenes":[
		{
			"name":"Scene",
			"nodes":[
				0
			]
		}
	],
	"nodes":[
		{
			"mesh":0,
			"name":"assemblage - terug nieuw"
		}
	],
	"materials":[
		{
			"doubleSided":true,
			"extensions":{
				"KHR_materials_specular":{
					"specularFactor":0
				},
				"KHR_materials_ior":{
					"ior":1.4500000476837158
				}
			},
			"name":"assemblage___terug_nieuwMaterial0",
			"pbrMetallicRoughness":{
				"baseColorFactor":[
					0.800000011920929,
					0.800000011920929,
					0.800000011920929,
					1
				],
				"metallicFactor":0
			}
		},
		{
			"doubleSided":true,
			"extensions":{
				"KHR_materials_specular":{
					"specularFactor":0
				},
				"KHR_materials_ior":{
					"ior":1.4500000476837158
				}
			},
			"name":"assemblage___terug_nieuwMaterial1",
			"pbrMetallicRoughness":{
				"baseColorFactor":[
					0.800000011920929,
					0.800000011920929,
					0.800000011920929,
					1
				],
				"metallicFactor":0
			}
		},
		{
			"doubleSided":true,
			"extensions":{
				"KHR_materials_specular":{
					"specularFactor":0
				},
				"KHR_materials_ior":{
					"ior":1.4500000476837158
				}
			},
			"name":"assemblage___terug_nieuwMaterial2",
			"pbrMetallicRoughness":{
				"baseColorFactor":[
					0.800000011920929,
					0.800000011920929,
					0.800000011920929,
					1
				],
				"metallicFactor":0
			}
		},
		{
			"doubleSided":true,
			"extensions":{
				"KHR_materials_specular":{
					"specularFactor":0
				},
				"KHR_materials_ior":{
					"ior":1.4500000476837158
				}
			},
			"name":"assemblage___terug_nieuwMaterial3",
			"pbrMetallicRoughness":{
				"baseColorFactor":[
					0.800000011920929,
					0.800000011920929,
					0.800000011920929,
					1
				],
				"metallicFactor":0
			}
		},
		{
			"doubleSided":true,
			"extensions":{
				"KHR_materials_specular":{
					"specularFactor":0
				},
				"KHR_materials_ior":{
					"ior":1.4500000476837158
				}
			},
			"name":"assemblage___terug_nieuwMaterial4",
			"pbrMetallicRoughness":{
				"baseColorFactor":[
					0.800000011920929,
					0.800000011920929,
					0.800000011920929,
					1
				],
				"metallicFactor":0
			}
		},
		{
			"doubleSided":true,
			"extensions":{
				"KHR_materials_specular":{
					"specularFactor":0
				},
				"KHR_materials_ior":{
					"ior":1.4500000476837158
				}
			},
			"name":"assemblage___terug_nieuwMaterial5",
			"pbrMetallicRoughness":{
				"baseColorFactor":[
					0.800000011920929,
					0.800000011920929,
					0.800000011920929,
					1
				],
				"metallicFactor":0
			}
		},
		{
			"doubleSided":true,
			"extensions":{
				"KHR_materials_specular":{
					"specularFactor":0
				},
				"KHR_materials_ior":{
					"ior":1.4500000476837158
				}
			},
			"name":"assemblage___terug_nieuwMaterial6",
			"pbrMetallicRoughness":{
				"baseColorFactor":[
					0.800000011920929,
					0.800000011920929,
					0.800000011920929,
					1
				],
				"metallicFactor":0
			}
		},
		{
			"doubleSided":true,
			"extensions":{
				"KHR_materials_specular":{
					"specularFactor":0
				},
				"KHR_materials_ior":{
					"ior":1.4500000476837158
				}
			},
			"name":"assemblage___terug_nieuwMaterial7",
			"pbrMetallicRoughness":{
				"baseColorFactor":[
					0.800000011920929,
					0.800000011920929,
					0.800000011920929,
					1
				],
				"metallicFactor":0
			}
		},
		{
			"doubleSided":true,
			"extensions":{
				"KHR_materials_specular":{
					"specularFactor":0
				},
				"KHR_materials_ior":{
					"ior":1.4500000476837158
				}
			},
			"name":"assemblage___terug_nieuwMaterial8",
			"pbrMetallicRoughness":{
				"baseColorFactor":[
					0.800000011920929,
					0.800000011920929,
					0.800000011920929,
					1
				],
				"metallicFactor":0
			}
		},
		{
			"doubleSided":true,
			"extensions":{
				"KHR_materials_specular":{
					"specularFactor":0
				},
				"KHR_materials_ior":{
					"ior":1.4500000476837158
				}
			},
			"name":"assemblage___terug_nieuwMaterial9",
			"pbrMetallicRoughness":{
				"baseColorFactor":[
					0.800000011920929,
					0.800000011920929,
					0.800000011920929,
					1
				],
				"metallicFactor":0
			}
		},
		{
			"doubleSided":true,
			"extensions":{
				"KHR_materials_specular":{
					"specularFactor":0
				},
				"KHR_materials_ior":{
					"ior":1.4500000476837158
				}
			},
			"name":"assemblage___terug_nieuwMaterial10",
			"pbrMetallicRoughness":{
				"baseColorFactor":[
					0.800000011920929,
					0.800000011920929,
					0.800000011920929,
					1
				],
				"metallicFactor":0
			}
		}
	],
	"meshes":[
		{
			"name":"assemblage - terug nieuw",
			"primitives":[
				{
					"attributes":{
						"POSITION":0,
						"NORMAL":1
					},
					"indices":2,
					"material":0
				},
				{
					"attributes":{
						"POSITION":3,
						"NORMAL":4
					},
					"indices":5,
					"material":1
				},
				{
					"attributes":{
						"POSITION":6,
						"NORMAL":7
					},
					"indices":8,
					"material":2
				},
				{
					"attributes":{
						"POSITION":9,
						"NORMAL":10
					},
					"indices":11,
					"material":3
				},
				{
					"attributes":{
						"POSITION":12,
						"NORMAL":13
					},
					"indices":14,
					"material":4
				},
				{
					"attributes":{
						"POSITION":15,
						"NORMAL":16
					},
					"indices":17,
					"material":5
				},
				{
					"attributes":{
						"POSITION":18,
						"NORMAL":19
					},
					"indices":20,
					"material":6
				},
				{
					"attributes":{
						"POSITION":21,
						"NORMAL":22
					},
					"indices":23,
					"material":7
				},
				{
					"attributes":{
						"POSITION":24,
						"NORMAL":25
					},
					"indices":26,
					"material":8
				},
				{
					"attributes":{
						"POSITION":27,
						"NORMAL":28
					},
					"indices":29,
					"material":9
				},
				{
					"attributes":{
						"POSITION":30,
						"NORMAL":31
					},
					"indices":32,
					"material":10
				}
			]
		}
	],
	"accessors":[
		{
			"bufferView":0,
			"componentType":5126,
			"count":5317,
			"max":[
				180.16380310058594,
				124.80628204345703,
				144.13616943359375
			],
			"min":[
				-51.98072814941406,
				-34.19371795654297,
				-62.98880386352539
			],
			"type":"VEC3"
		},
		{
			"bufferView":1,
			"componentType":5126,
			"count":5317,
			"type":"VEC3"
		},
		{
			"bufferView":2,
			"componentType":5123,
			"count":10902,
			"type":"SCALAR"
		},
		{
			"bufferView":3,
			"componentType":5126,
			"count":1907,
			"max":[
				162.71380615234375,
				128.8062744140625,
				74.1551742553711
			],
			"min":[
				-62.83619689941406,
				-19.193729400634766,
				-73.84484100341797
			],
			"type":"VEC3"
		},
		{
			"bufferView":4,
			"componentType":5126,
			"count":1907,
			"type":"VEC3"
		},
		{
			"bufferView":5,
			"componentType":5123,
			"count":2703,
			"type":"SCALAR"
		},
		{
			"bufferView":6,
			"componentType":5126,
			"count":3367,
			"max":[
				171.16380310058594,
				128.8062744140625,
				80.1551742553711
			],
			"min":[
				-68.836181640625,
				-23.19371795654297,
				-79.84483337402344
			],
			"type":"VEC3"
		},
		{
			"bufferView":7,
			"componentType":5126,
			"count":3367,
			"type":"VEC3"
		},
		{
			"bufferView":8,
			"componentType":5123,
			"count":10239,
			"type":"SCALAR"
		},
		{
			"bufferView":9,
			"componentType":5126,
			"count":50966,
			"max":[
				13.96380615234375,
				30.487709045410156,
				105.25518035888672
			],
			"min":[
				-57.49713134765625,
				-38.37130355834961,
				-104.94482421875
			],
			"type":"VEC3"
		},
		{
			"bufferView":10,
			"componentType":5126,
			"count":50966,
			"type":"VEC3"
		},
		{
			"bufferView":11,
			"componentType":5123,
			"count":58458,
			"type":"SCALAR"
		},
		{
			"bufferView":12,
			"componentType":5126,
			"count":9446,
			"max":[
				11.4244384765625,
				30.487709045410156,
				105.15474700927734
			],
			"min":[
				-57.49713134765625,
				-38.37130355834961,
				-104.84440612792969
			],
			"type":"VEC3"
		},
		{
			"bufferView":13,
			"componentType":5126,
			"count":9446,
			"type":"VEC3"
		},
		{
			"bufferView":14,
			"componentType":5123,
			"count":9726,
			"type":"SCALAR"
		},
		{
			"bufferView":15,
			"componentType":5126,
			"count":15349,
			"max":[
				26.457000732421875,
				7.925064563751221,
				86.6551742553711
			],
			"min":[
				-5.9005279541015625,
				-15.81252670288086,
				-86.34483337402344
			],
			"type":"VEC3"
		},
		{
			"bufferView":16,
			"componentType":5126,
			"count":15349,
			"type":"VEC3"
		},
		{
			"bufferView":17,
			"componentType":5123,
			"count":17928,
			"type":"SCALAR"
		},
		{
			"bufferView":18,
			"componentType":5126,
			"count":856,
			"max":[
				2.6638031005859375,
				6.304203033447266,
				86.6551742553711
			],
			"min":[
				-8.336196899414062,
				-15.19372844696045,
				-86.34483337402344
			],
			"type":"VEC3"
		},
		{
			"bufferView":19,
			"componentType":5126,
			"count":856,
			"type":"VEC3"
		},
		{
			"bufferView":20,
			"componentType":5123,
			"count":1272,
			"type":"SCALAR"
		},
		{
			"bufferView":21,
			"componentType":5126,
			"count":40,
			"max":[
				-8.836196899414062,
				128.8062744140625,
				42.15516662597656
			],
			"min":[
				-28.836196899414062,
				64.8062744140625,
				-73.84484100341797
			],
			"type":"VEC3"
		},
		{
			"bufferView":22,
			"componentType":5126,
			"count":40,
			"type":"VEC3"
		},
		{
			"bufferView":23,
			"componentType":5123,
			"count":108,
			"type":"SCALAR"
		},
		{
			"bufferView":24,
			"componentType":5126,
			"count":799,
			"max":[
				150.26380920410156,
				-23.19371795654297,
				14.155182838439941
			],
			"min":[
				105.26380157470703,
				-35.69371795654297,
				-13.844817161560059
			],
			"type":"VEC3"
		},
		{
			"bufferView":25,
			"componentType":5126,
			"count":799,
			"type":"VEC3"
		},
		{
			"bufferView":26,
			"componentType":5123,
			"count":1290,
			"type":"SCALAR"
		},
		{
			"bufferView":27,
			"componentType":5126,
			"count":234,
			"max":[
				132.1647186279297,
				-31.273719787597656,
				4.654748439788818
			],
			"min":[
				123.23118591308594,
				-35.69371795654297,
				-4.34438943862915
			],
			"type":"VEC3"
		},
		{
			"bufferView":28,
			"componentType":5126,
			"count":234,
			"type":"VEC3"
		},
		{
			"bufferView":29,
			"componentType":5123,
			"count":312,
			"type":"SCALAR"
		},
		{
			"bufferView":30,
			"componentType":5126,
			"count":4404,
			"max":[
				-20.306243896484375,
				-1.1937063932418823,
				89.55517578125
			],
			"min":[
				-25.766143798828125,
				-6.693729400634766,
				-89.24482727050781
			],
			"type":"VEC3"
		},
		{
			"bufferView":31,
			"componentType":5126,
			"count":4404,
			"type":"VEC3"
		},
		{
			"bufferView":32,
			"componentType":5123,
			"count":4740,
			"type":"SCALAR"
		}
	],
	"bufferViews":[
		{
			"buffer":0,
			"byteLength":63804,
			"byteOffset":0,
			"target":34962
		},
		{
			"buffer":0,
			"byteLength":63804,
			"byteOffset":63804,
			"target":34962
		},
		{
			"buffer":0,
			"byteLength":21804,
			"byteOffset":127608,
			"target":34963
		},
		{
			"buffer":0,
			"byteLength":22884,
			"byteOffset":149412,
			"target":34962
		},
		{
			"buffer":0,
			"byteLength":22884,
			"byteOffset":172296,
			"target":34962
		},
		{
			"buffer":0,
			"byteLength":5406,
			"byteOffset":195180,
			"target":34963
		},
		{
			"buffer":0,
			"byteLength":40404,
			"byteOffset":200588,
			"target":34962
		},
		{
			"buffer":0,
			"byteLength":40404,
			"byteOffset":240992,
			"target":34962
		},
		{
			"buffer":0,
			"byteLength":20478,
			"byteOffset":281396,
			"target":34963
		},
		{
			"buffer":0,
			"byteLength":611592,
			"byteOffset":301876,
			"target":34962
		},
		{
			"buffer":0,
			"byteLength":611592,
			"byteOffset":913468,
			"target":34962
		},
		{
			"buffer":0,
			"byteLength":116916,
			"byteOffset":1525060,
			"target":34963
		},
		{
			"buffer":0,
			"byteLength":113352,
			"byteOffset":1641976,
			"target":34962
		},
		{
			"buffer":0,
			"byteLength":113352,
			"byteOffset":1755328,
			"target":34962
		},
		{
			"buffer":0,
			"byteLength":19452,
			"byteOffset":1868680,
			"target":34963
		},
		{
			"buffer":0,
			"byteLength":184188,
			"byteOffset":1888132,
			"target":34962
		},
		{
			"buffer":0,
			"byteLength":184188,
			"byteOffset":2072320,
			"target":34962
		},
		{
			"buffer":0,
			"byteLength":35856,
			"byteOffset":2256508,
			"target":34963
		},
		{
			"buffer":0,
			"byteLength":10272,
			"byteOffset":2292364,
			"target":34962
		},
		{
			"buffer":0,
			"byteLength":10272,
			"byteOffset":2302636,
			"target":34962
		},
		{
			"buffer":0,
			"byteLength":2544,
			"byteOffset":2312908,
			"target":34963
		},
		{
			"buffer":0,
			"byteLength":480,
			"byteOffset":2315452,
			"target":34962
		},
		{
			"buffer":0,
			"byteLength":480,
			"byteOffset":2315932,
			"target":34962
		},
		{
			"buffer":0,
			"byteLength":216,
			"byteOffset":2316412,
			"target":34963
		},
		{
			"buffer":0,
			"byteLength":9588,
			"byteOffset":2316628,
			"target":34962
		},
		{
			"buffer":0,
			"byteLength":9588,
			"byteOffset":2326216,
			"target":34962
		},
		{
			"buffer":0,
			"byteLength":2580,
			"byteOffset":2335804,
			"target":34963
		},
		{
			"buffer":0,
			"byteLength":2808,
			"byteOffset":2338384,
			"target":34962
		},
		{
			"buffer":0,
			"byteLength":2808,
			"byteOffset":2341192,
			"target":34962
		},
		{
			"buffer":0,
			"byteLength":624,
			"byteOffset":2344000,
			"target":34963
		},
		{
			"buffer":0,
			"byteLength":52848,
			"byteOffset":2344624,
			"target":34962
		},
		{
			"buffer":0,
			"byteLength":52848,
			"byteOffset":2397472,
			"target":34962
		},
		{
			"buffer":0,
			"byteLength":9480,
			"byteOffset":2450320,
			"target":34963
		}
	],
	"buffers":[
		{
			"byteLength":2459800,
			"uri":"Wagen001.bin"
		}
	]
}
