{
	"asset":{
		"generator":"Khronos glTF Blender I/O v4.0.44",
		"version":"2.0"
	},
	"scene":0,
	"scenes":[
		{
			"name":"Scene",
			"nodes":[
				0
			]
		}
	],
	"nodes":[
		{
			"mesh":0,
			"name":"Cloud2",
			"rotation":[
				0,
				0.6915335655212402,
				0,
				0.7223443388938904
			],
			"scale":[
				1.23732328414917,
				1.23732328414917,
				1.23732328414917
			],
			"translation":[
				-0.10337362438440323,
				0.17623397707939148,
				-0.0046499609015882015
			]
		}
	],
	"animations":[
		{
			"channels":[
				{
					"sampler":0,
					"target":{
						"node":0,
						"path":"translation"
					}
				},
				{
					"sampler":1,
					"target":{
						"node":0,
						"path":"rotation"
					}
				}
			],
			"name":"Cloud2Action",
			"samplers":[
				{
					"input":4,
					"interpolation":"LINEAR",
					"output":5
				},
				{
					"input":4,
					"interpolation":"LINEAR",
					"output":6
				}
			]
		}
	],
	"materials":[
		{
			"doubleSided":true,
			"name":"Clouds",
			"pbrMetallicRoughness":{
				"baseColorFactor":[
					0.7704761028289795,
					0.7704761028289795,
					0.7704761028289795,
					1
				],
				"metallicFactor":0,
				"roughnessFactor":0.5
			}
		}
	],
	"meshes":[
		{
			"name":"Icosphere.016",
			"primitives":[
				{
					"attributes":{
						"POSITION":0,
						"NORMAL":1,
						"TEXCOORD_0":2
					},
					"indices":3,
					"material":0
				}
			]
		}
	],
	"accessors":[
		{
			"bufferView":0,
			"componentType":5126,
			"count":1588,
			"max":[
				0.05317918583750725,
				0.022814521566033363,
				0.019999999552965164
			],
			"min":[
				-0.05188698321580887,
				-0.02000005915760994,
				-0.019999999552965164
			],
			"type":"VEC3"
		},
		{
			"bufferView":1,
			"componentType":5126,
			"count":1588,
			"type":"VEC3"
		},
		{
			"bufferView":2,
			"componentType":5126,
			"count":1588,
			"type":"VEC2"
		},
		{
			"bufferView":3,
			"componentType":5123,
			"count":2076,
			"type":"SCALAR"
		},
		{
			"bufferView":4,
			"componentType":5126,
			"count":802,
			"max":[
				33.416666666666664
			],
			"min":[
				0.041666666666666664
			],
			"type":"SCALAR"
		},
		{
			"bufferView":5,
			"componentType":5126,
			"count":802,
			"type":"VEC3"
		},
		{
			"bufferView":6,
			"componentType":5126,
			"count":802,
			"type":"VEC4"
		}
	],
	"bufferViews":[
		{
			"buffer":0,
			"byteLength":19056,
			"byteOffset":0,
			"target":34962
		},
		{
			"buffer":0,
			"byteLength":19056,
			"byteOffset":19056,
			"target":34962
		},
		{
			"buffer":0,
			"byteLength":12704,
			"byteOffset":38112,
			"target":34962
		},
		{
			"buffer":0,
			"byteLength":4152,
			"byteOffset":50816,
			"target":34963
		},
		{
			"buffer":0,
			"byteLength":3208,
			"byteOffset":54968
		},
		{
			"buffer":0,
			"byteLength":9624,
			"byteOffset":58176
		},
		{
			"buffer":0,
			"byteLength":12832,
			"byteOffset":67800
		}
	],
	"buffers":[
		{
			"byteLength":80632,
			"uri":"Cloud1.bin"
		}
	]
}
