{
	"asset":{
		"generator":"Khronos glTF Blender I/O v4.0.44",
		"version":"2.0"
	},
	"scene":0,
	"scenes":[
		{
			"name":"Scene",
			"nodes":[
				0
			]
		}
	],
	"nodes":[
		{
			"mesh":0,
			"name":"Icosphere.008",
			"rotation":[
				0,
				0.9921229481697083,
				0,
				0.12526826560497284
			],
			"scale":[
				1.23732328414917,
				1.23732328414917,
				1.23732328414917
			],
			"translation":[
				-0.040360674262046814,
				0.18535277247428894,
				0.09291678667068481
			]
		}
	],
	"animations":[
		{
			"channels":[
				{
					"sampler":0,
					"target":{
						"node":0,
						"path":"translation"
					}
				},
				{
					"sampler":1,
					"target":{
						"node":0,
						"path":"rotation"
					}
				}
			],
			"name":"Icosphere.008Action.001",
			"samplers":[
				{
					"input":4,
					"interpolation":"LINEAR",
					"output":5
				},
				{
					"input":4,
					"interpolation":"LINEAR",
					"output":6
				}
			]
		}
	],
	"materials":[
		{
			"doubleSided":true,
			"name":"Clouds",
			"pbrMetallicRoughness":{
				"baseColorFactor":[
					0.7704761028289795,
					0.7704761028289795,
					0.7704761028289795,
					1
				],
				"metallicFactor":0,
				"roughnessFactor":0.5
			}
		}
	],
	"meshes":[
		{
			"name":"Icosphere.036",
			"primitives":[
				{
					"attributes":{
						"POSITION":0,
						"NORMAL":1,
						"TEXCOORD_0":2
					},
					"indices":3,
					"material":0
				}
			]
		}
	],
	"accessors":[
		{
			"bufferView":0,
			"componentType":5126,
			"count":1216,
			"max":[
				0.03892961144447327,
				0.019999932497739792,
				0.024346981197595596
			],
			"min":[
				-0.04574848338961601,
				-0.020000051707029343,
				-0.019999992102384567
			],
			"type":"VEC3"
		},
		{
			"bufferView":1,
			"componentType":5126,
			"count":1216,
			"type":"VEC3"
		},
		{
			"bufferView":2,
			"componentType":5126,
			"count":1216,
			"type":"VEC2"
		},
		{
			"bufferView":3,
			"componentType":5123,
			"count":1638,
			"type":"SCALAR"
		},
		{
			"bufferView":4,
			"componentType":5126,
			"count":802,
			"max":[
				33.375
			],
			"min":[
				0
			],
			"type":"SCALAR"
		},
		{
			"bufferView":5,
			"componentType":5126,
			"count":802,
			"type":"VEC3"
		},
		{
			"bufferView":6,
			"componentType":5126,
			"count":802,
			"type":"VEC4"
		}
	],
	"bufferViews":[
		{
			"buffer":0,
			"byteLength":14592,
			"byteOffset":0,
			"target":34962
		},
		{
			"buffer":0,
			"byteLength":14592,
			"byteOffset":14592,
			"target":34962
		},
		{
			"buffer":0,
			"byteLength":9728,
			"byteOffset":29184,
			"target":34962
		},
		{
			"buffer":0,
			"byteLength":3276,
			"byteOffset":38912,
			"target":34963
		},
		{
			"buffer":0,
			"byteLength":3208,
			"byteOffset":42188
		},
		{
			"buffer":0,
			"byteLength":9624,
			"byteOffset":45396
		},
		{
			"buffer":0,
			"byteLength":12832,
			"byteOffset":55020
		}
	],
	"buffers":[
		{
			"byteLength":67852,
			"uri":"Cloud2.bin"
		}
	]
}
