{
	"asset":{
		"generator":"Khronos glTF Blender I/O v4.0.44",
		"version":"2.0"
	},
	"scene":0,
	"scenes":[
		{
			"name":"Scene",
			"nodes":[
				0
			]
		}
	],
	"nodes":[
		{
			"mesh":0,
			"name":"Icosphere.011",
			"rotation":[
				0,
				-0.20805171132087708,
				0,
				0.9781179428100586
			],
			"scale":[
				1.23732328414917,
				1.23732328414917,
				1.23732328414917
			],
			"translation":[
				0.04277922213077545,
				0.16281862556934357,
				-0.07252267748117447
			]
		}
	],
	"animations":[
		{
			"channels":[
				{
					"sampler":0,
					"target":{
						"node":0,
						"path":"translation"
					}
				},
				{
					"sampler":1,
					"target":{
						"node":0,
						"path":"rotation"
					}
				}
			],
			"name":"Icosphere.011Action.001",
			"samplers":[
				{
					"input":4,
					"interpolation":"LINEAR",
					"output":5
				},
				{
					"input":4,
					"interpolation":"LINEAR",
					"output":6
				}
			]
		}
	],
	"materials":[
		{
			"doubleSided":true,
			"name":"Clouds",
			"pbrMetallicRoughness":{
				"baseColorFactor":[
					0.7704761028289795,
					0.7704761028289795,
					0.7704761028289795,
					1
				],
				"metallicFactor":0,
				"roughnessFactor":0.5
			}
		}
	],
	"meshes":[
		{
			"name":"Icosphere.023",
			"primitives":[
				{
					"attributes":{
						"POSITION":0,
						"NORMAL":1,
						"TEXCOORD_0":2
					},
					"indices":3,
					"material":0
				}
			]
		}
	],
	"accessors":[
		{
			"bufferView":0,
			"componentType":5126,
			"count":1312,
			"max":[
				0.0542973168194294,
				0.019999992102384567,
				0.019999992102384567
			],
			"min":[
				-0.03968627378344536,
				-0.019999992102384567,
				-0.019999992102384567
			],
			"type":"VEC3"
		},
		{
			"bufferView":1,
			"componentType":5126,
			"count":1312,
			"type":"VEC3"
		},
		{
			"bufferView":2,
			"componentType":5126,
			"count":1312,
			"type":"VEC2"
		},
		{
			"bufferView":3,
			"componentType":5123,
			"count":1716,
			"type":"SCALAR"
		},
		{
			"bufferView":4,
			"componentType":5126,
			"count":2404,
			"max":[
				100.125
			],
			"min":[
				0
			],
			"type":"SCALAR"
		},
		{
			"bufferView":5,
			"componentType":5126,
			"count":2404,
			"type":"VEC3"
		},
		{
			"bufferView":6,
			"componentType":5126,
			"count":2404,
			"type":"VEC4"
		}
	],
	"bufferViews":[
		{
			"buffer":0,
			"byteLength":15744,
			"byteOffset":0,
			"target":34962
		},
		{
			"buffer":0,
			"byteLength":15744,
			"byteOffset":15744,
			"target":34962
		},
		{
			"buffer":0,
			"byteLength":10496,
			"byteOffset":31488,
			"target":34962
		},
		{
			"buffer":0,
			"byteLength":3432,
			"byteOffset":41984,
			"target":34963
		},
		{
			"buffer":0,
			"byteLength":9616,
			"byteOffset":45416
		},
		{
			"buffer":0,
			"byteLength":28848,
			"byteOffset":55032
		},
		{
			"buffer":0,
			"byteLength":38464,
			"byteOffset":83880
		}
	],
	"buffers":[
		{
			"byteLength":122344,
			"uri":"Cloud4.bin"
		}
	]
}
