{
	"asset":{
		"generator":"Khronos glTF Blender I/O v4.0.44",
		"version":"2.0"
	},
	"scene":0,
	"scenes":[
		{
			"name":"Scene",
			"nodes":[
				0
			]
		}
	],
	"nodes":[
		{
			"mesh":0,
			"name":"Cloud1",
			"scale":[
				1.23732328414917,
				1.23732328414917,
				1.23732328414917
			],
			"translation":[
				-0.10408759862184525,
				0.22313110530376434,
				-0.004644077271223068
			]
		}
	],
	"animations":[
		{
			"channels":[
				{
					"sampler":0,
					"target":{
						"node":0,
						"path":"translation"
					}
				}
			],
			"name":"Cloud1Action",
			"samplers":[
				{
					"input":4,
					"interpolation":"LINEAR",
					"output":5
				}
			]
		}
	],
	"materials":[
		{
			"doubleSided":true,
			"name":"Clouds",
			"pbrMetallicRoughness":{
				"baseColorFactor":[
					0.7704761028289795,
					0.7704761028289795,
					0.7704761028289795,
					1
				],
				"metallicFactor":0,
				"roughnessFactor":0.5
			}
		}
	],
	"meshes":[
		{
			"name":"Icosphere.016",
			"primitives":[
				{
					"attributes":{
						"POSITION":0,
						"NORMAL":1,
						"TEXCOORD_0":2
					},
					"indices":3,
					"material":0
				}
			]
		}
	],
	"accessors":[
		{
			"bufferView":0,
			"componentType":5126,
			"count":1588,
			"max":[
				0.05317918583750725,
				0.022814521566033363,
				0.019999999552965164
			],
			"min":[
				-0.05188698321580887,
				-0.02000005915760994,
				-0.019999999552965164
			],
			"type":"VEC3"
		},
		{
			"bufferView":1,
			"componentType":5126,
			"count":1588,
			"type":"VEC3"
		},
		{
			"bufferView":2,
			"componentType":5126,
			"count":1588,
			"type":"VEC2"
		},
		{
			"bufferView":3,
			"componentType":5123,
			"count":2076,
			"type":"SCALAR"
		},
		{
			"bufferView":4,
			"componentType":5126,
			"count":242,
			"max":[
				10.041666666666666
			],
			"min":[
				0
			],
			"type":"SCALAR"
		},
		{
			"bufferView":5,
			"componentType":5126,
			"count":242,
			"type":"VEC3"
		}
	],
	"bufferViews":[
		{
			"buffer":0,
			"byteLength":19056,
			"byteOffset":0,
			"target":34962
		},
		{
			"buffer":0,
			"byteLength":19056,
			"byteOffset":19056,
			"target":34962
		},
		{
			"buffer":0,
			"byteLength":12704,
			"byteOffset":38112,
			"target":34962
		},
		{
			"buffer":0,
			"byteLength":4152,
			"byteOffset":50816,
			"target":34963
		},
		{
			"buffer":0,
			"byteLength":968,
			"byteOffset":54968
		},
		{
			"buffer":0,
			"byteLength":2904,
			"byteOffset":55936
		}
	],
	"buffers":[
		{
			"byteLength":58840,
			"uri":"Cloud1.bin"
		}
	]
}
