{
	"asset":{
		"generator":"Khronos glTF Blender I/O v4.0.44",
		"version":"2.0"
	},
	"scene":0,
	"scenes":[
		{
			"name":"Scene",
			"nodes":[
				0
			]
		}
	],
	"nodes":[
		{
			"mesh":0,
			"name":"Cube.022",
			"translation":[
				-0.013965999707579613,
				0.0055558825843036175,
				0
			]
		}
	],
	"animations":[
		{
			"channels":[
				{
					"sampler":0,
					"target":{
						"node":0,
						"path":"translation"
					}
				}
			],
			"name":"Cube.022Action",
			"samplers":[
				{
					"input":12,
					"interpolation":"LINEAR",
					"output":13
				}
			]
		}
	],
	"materials":[
		{
			"doubleSided":true,
			"name":"Material.015",
			"pbrMetallicRoughness":{
				"baseColorFactor":[
					0.09727416187524796,
					0.09727416187524796,
					0.09727416187524796,
					1
				],
				"metallicFactor":0,
				"roughnessFactor":0.5
			}
		},
		{
			"doubleSided":true,
			"name":"Material",
			"pbrMetallicRoughness":{
				"baseColorFactor":[
					0.17631188035011292,
					0.03569004312157631,
					0,
					1
				],
				"metallicFactor":0,
				"roughnessFactor":0.5
			}
		},
		{
			"doubleSided":true,
			"name":"Material.013",
			"pbrMetallicRoughness":{
				"baseColorFactor":[
					0.5688770413398743,
					0.46405503153800964,
					0,
					1
				],
				"metallicFactor":0,
				"roughnessFactor":0.5
			}
		}
	],
	"meshes":[
		{
			"name":"Cube.022",
			"primitives":[
				{
					"attributes":{
						"POSITION":0,
						"NORMAL":1,
						"TEXCOORD_0":2
					},
					"indices":3,
					"material":0
				},
				{
					"attributes":{
						"POSITION":4,
						"NORMAL":5,
						"TEXCOORD_0":6
					},
					"indices":7,
					"material":1
				},
				{
					"attributes":{
						"POSITION":8,
						"NORMAL":9,
						"TEXCOORD_0":10
					},
					"indices":11,
					"material":2
				}
			]
		}
	],
	"accessors":[
		{
			"bufferView":0,
			"componentType":5126,
			"count":382,
			"max":[
				-0.07458198070526123,
				-0.09912095218896866,
				-0.05251370370388031
			],
			"min":[
				-0.12186387926340103,
				-0.12697747349739075,
				-0.15661363303661346
			],
			"type":"VEC3"
		},
		{
			"bufferView":1,
			"componentType":5126,
			"count":382,
			"type":"VEC3"
		},
		{
			"bufferView":2,
			"componentType":5126,
			"count":382,
			"type":"VEC2"
		},
		{
			"bufferView":3,
			"componentType":5123,
			"count":900,
			"type":"SCALAR"
		},
		{
			"bufferView":4,
			"componentType":5126,
			"count":864,
			"max":[
				-0.0745253786444664,
				-0.10307222604751587,
				-0.05413338541984558
			],
			"min":[
				-0.1211617961525917,
				-0.12811826169490814,
				-0.15738160908222198
			],
			"type":"VEC3"
		},
		{
			"bufferView":5,
			"componentType":5126,
			"count":864,
			"type":"VEC3"
		},
		{
			"bufferView":6,
			"componentType":5126,
			"count":864,
			"type":"VEC2"
		},
		{
			"bufferView":7,
			"componentType":5123,
			"count":1584,
			"type":"SCALAR"
		},
		{
			"bufferView":8,
			"componentType":5126,
			"count":840,
			"max":[
				-0.07548557221889496,
				-0.09948224574327469,
				-0.05349399149417877
			],
			"min":[
				-0.12093231827020645,
				-0.12169333547353745,
				-0.15483003854751587
			],
			"type":"VEC3"
		},
		{
			"bufferView":9,
			"componentType":5126,
			"count":840,
			"type":"VEC3"
		},
		{
			"bufferView":10,
			"componentType":5126,
			"count":840,
			"type":"VEC2"
		},
		{
			"bufferView":11,
			"componentType":5123,
			"count":1224,
			"type":"SCALAR"
		},
		{
			"bufferView":12,
			"componentType":5126,
			"count":161,
			"max":[
				6.666666666666667
			],
			"min":[
				0
			],
			"type":"SCALAR"
		},
		{
			"bufferView":13,
			"componentType":5126,
			"count":161,
			"type":"VEC3"
		}
	],
	"bufferViews":[
		{
			"buffer":0,
			"byteLength":4584,
			"byteOffset":0,
			"target":34962
		},
		{
			"buffer":0,
			"byteLength":4584,
			"byteOffset":4584,
			"target":34962
		},
		{
			"buffer":0,
			"byteLength":3056,
			"byteOffset":9168,
			"target":34962
		},
		{
			"buffer":0,
			"byteLength":1800,
			"byteOffset":12224,
			"target":34963
		},
		{
			"buffer":0,
			"byteLength":10368,
			"byteOffset":14024,
			"target":34962
		},
		{
			"buffer":0,
			"byteLength":10368,
			"byteOffset":24392,
			"target":34962
		},
		{
			"buffer":0,
			"byteLength":6912,
			"byteOffset":34760,
			"target":34962
		},
		{
			"buffer":0,
			"byteLength":3168,
			"byteOffset":41672,
			"target":34963
		},
		{
			"buffer":0,
			"byteLength":10080,
			"byteOffset":44840,
			"target":34962
		},
		{
			"buffer":0,
			"byteLength":10080,
			"byteOffset":54920,
			"target":34962
		},
		{
			"buffer":0,
			"byteLength":6720,
			"byteOffset":65000,
			"target":34962
		},
		{
			"buffer":0,
			"byteLength":2448,
			"byteOffset":71720,
			"target":34963
		},
		{
			"buffer":0,
			"byteLength":644,
			"byteOffset":74168
		},
		{
			"buffer":0,
			"byteLength":1932,
			"byteOffset":74812
		}
	],
	"buffers":[
		{
			"byteLength":76744,
			"uri":"Minecarts.bin"
		}
	]
}
