{
	"asset":{
		"generator":"Khronos glTF Blender I/O v4.0.44",
		"version":"2.0"
	},
	"scene":0,
	"scenes":[
		{
			"name":"Scene",
			"nodes":[
				0
			]
		}
	],
	"nodes":[
		{
			"mesh":0,
			"name":"Cube.025",
			"rotation":[
				0.021927932277321815,
				0.9047825932502747,
				0.04833914712071419,
				0.4225529134273529
			],
			"translation":[
				-0.11076619476079941,
				-0.09493278712034225,
				-0.11329393833875656
			]
		}
	],
	"animations":[
		{
			"channels":[
				{
					"sampler":0,
					"target":{
						"node":0,
						"path":"translation"
					}
				},
				{
					"sampler":1,
					"target":{
						"node":0,
						"path":"rotation"
					}
				}
			],
			"name":"Cube.025Action",
			"samplers":[
				{
					"input":12,
					"interpolation":"LINEAR",
					"output":13
				},
				{
					"input":12,
					"interpolation":"LINEAR",
					"output":14
				}
			]
		}
	],
	"materials":[
		{
			"doubleSided":true,
			"name":"Material.015",
			"pbrMetallicRoughness":{
				"baseColorFactor":[
					0.09727416187524796,
					0.09727416187524796,
					0.09727416187524796,
					1
				],
				"metallicFactor":0,
				"roughnessFactor":0.5
			}
		},
		{
			"doubleSided":true,
			"name":"Material",
			"pbrMetallicRoughness":{
				"baseColorFactor":[
					0.17631188035011292,
					0.03569004312157631,
					0,
					1
				],
				"metallicFactor":0,
				"roughnessFactor":0.5
			}
		},
		{
			"doubleSided":true,
			"name":"Material.013",
			"pbrMetallicRoughness":{
				"baseColorFactor":[
					0.5688770413398743,
					0.46405503153800964,
					0,
					1
				],
				"metallicFactor":0,
				"roughnessFactor":0.5
			}
		}
	],
	"meshes":[
		{
			"name":"Cube.024",
			"primitives":[
				{
					"attributes":{
						"POSITION":0,
						"NORMAL":1,
						"TEXCOORD_0":2
					},
					"indices":3,
					"material":0
				},
				{
					"attributes":{
						"POSITION":4,
						"NORMAL":5,
						"TEXCOORD_0":6
					},
					"indices":7,
					"material":1
				},
				{
					"attributes":{
						"POSITION":8,
						"NORMAL":9,
						"TEXCOORD_0":10
					},
					"indices":11,
					"material":2
				}
			]
		}
	],
	"accessors":[
		{
			"bufferView":0,
			"componentType":5126,
			"count":120,
			"max":[
				0.006021364126354456,
				0.0021284304093569517,
				0.0042188698425889015
			],
			"min":[
				-0.006021341308951378,
				-0.004468540195375681,
				-0.004218891728669405
			],
			"type":"VEC3"
		},
		{
			"bufferView":1,
			"componentType":5126,
			"count":120,
			"type":"VEC3"
		},
		{
			"bufferView":2,
			"componentType":5126,
			"count":120,
			"type":"VEC2"
		},
		{
			"bufferView":3,
			"componentType":5123,
			"count":300,
			"type":"SCALAR"
		},
		{
			"bufferView":4,
			"componentType":5126,
			"count":288,
			"max":[
				0.006180703639984131,
				-0.002588760107755661,
				0.004568790085613728
			],
			"min":[
				-0.006180707830935717,
				-0.00625949539244175,
				-0.004568811971694231
			],
			"type":"VEC3"
		},
		{
			"bufferView":5,
			"componentType":5126,
			"count":288,
			"type":"VEC3"
		},
		{
			"bufferView":6,
			"componentType":5126,
			"count":288,
			"type":"VEC2"
		},
		{
			"bufferView":7,
			"componentType":5123,
			"count":528,
			"type":"SCALAR"
		},
		{
			"bufferView":8,
			"componentType":5126,
			"count":280,
			"max":[
				0.00508257606998086,
				0.0035652238875627518,
				0.0032800815533846617
			],
			"min":[
				-0.005082554183900356,
				0.0020208386704325676,
				-0.0032801039051264524
			],
			"type":"VEC3"
		},
		{
			"bufferView":9,
			"componentType":5126,
			"count":280,
			"type":"VEC3"
		},
		{
			"bufferView":10,
			"componentType":5126,
			"count":280,
			"type":"VEC2"
		},
		{
			"bufferView":11,
			"componentType":5123,
			"count":408,
			"type":"SCALAR"
		},
		{
			"bufferView":12,
			"componentType":5126,
			"count":61,
			"max":[
				2.5
			],
			"min":[
				0
			],
			"type":"SCALAR"
		},
		{
			"bufferView":13,
			"componentType":5126,
			"count":61,
			"type":"VEC3"
		},
		{
			"bufferView":14,
			"componentType":5126,
			"count":61,
			"type":"VEC4"
		}
	],
	"bufferViews":[
		{
			"buffer":0,
			"byteLength":1440,
			"byteOffset":0,
			"target":34962
		},
		{
			"buffer":0,
			"byteLength":1440,
			"byteOffset":1440,
			"target":34962
		},
		{
			"buffer":0,
			"byteLength":960,
			"byteOffset":2880,
			"target":34962
		},
		{
			"buffer":0,
			"byteLength":600,
			"byteOffset":3840,
			"target":34963
		},
		{
			"buffer":0,
			"byteLength":3456,
			"byteOffset":4440,
			"target":34962
		},
		{
			"buffer":0,
			"byteLength":3456,
			"byteOffset":7896,
			"target":34962
		},
		{
			"buffer":0,
			"byteLength":2304,
			"byteOffset":11352,
			"target":34962
		},
		{
			"buffer":0,
			"byteLength":1056,
			"byteOffset":13656,
			"target":34963
		},
		{
			"buffer":0,
			"byteLength":3360,
			"byteOffset":14712,
			"target":34962
		},
		{
			"buffer":0,
			"byteLength":3360,
			"byteOffset":18072,
			"target":34962
		},
		{
			"buffer":0,
			"byteLength":2240,
			"byteOffset":21432,
			"target":34962
		},
		{
			"buffer":0,
			"byteLength":816,
			"byteOffset":23672,
			"target":34963
		},
		{
			"buffer":0,
			"byteLength":244,
			"byteOffset":24488
		},
		{
			"buffer":0,
			"byteLength":732,
			"byteOffset":24732
		},
		{
			"buffer":0,
			"byteLength":976,
			"byteOffset":25464
		}
	],
	"buffers":[
		{
			"byteLength":26440,
			"uri":"Minecart2.bin"
		}
	]
}
