{
	"asset":{
		"generator":"Khronos glTF Blender I/O v4.0.44",
		"version":"2.0"
	},
	"scene":0,
	"scenes":[
		{
			"name":"Scene",
			"nodes":[
				0
			]
		}
	],
	"nodes":[
		{
			"mesh":0,
			"name":"Cylinder.002",
			"rotation":[
				0.3792060613632202,
				-0.12426555156707764,
				0.05147247761487961,
				0.9154843688011169
			],
			"scale":[
				0.6437010169029236,
				0.6437010765075684,
				0.6437010765075684
			],
			"translation":[
				-0.0034771794453263283,
				-0.078203484416008,
				-0.241773784160614
			]
		}
	],
	"animations":[
		{
			"channels":[
				{
					"sampler":0,
					"target":{
						"node":0,
						"path":"rotation"
					}
				}
			],
			"name":"Cylinder.002Action",
			"samplers":[
				{
					"input":4,
					"interpolation":"LINEAR",
					"output":5
				}
			]
		}
	],
	"materials":[
		{
			"doubleSided":true,
			"name":"Material.011",
			"pbrMetallicRoughness":{
				"baseColorFactor":[
					0.19876718521118164,
					0.040377985686063766,
					0,
					1
				],
				"metallicFactor":0,
				"roughnessFactor":0.5
			}
		}
	],
	"meshes":[
		{
			"name":"Cylinder.003",
			"primitives":[
				{
					"attributes":{
						"POSITION":0,
						"NORMAL":1,
						"TEXCOORD_0":2
					},
					"indices":3,
					"material":0
				}
			]
		}
	],
	"accessors":[
		{
			"bufferView":0,
			"componentType":5126,
			"count":1500,
			"max":[
				0.00859691109508276,
				0.017165370285511017,
				0.017165370285511017
			],
			"min":[
				-0.023577237501740456,
				-0.01716534048318863,
				-0.017165400087833405
			],
			"type":"VEC3"
		},
		{
			"bufferView":1,
			"componentType":5126,
			"count":1500,
			"type":"VEC3"
		},
		{
			"bufferView":2,
			"componentType":5126,
			"count":1500,
			"type":"VEC2"
		},
		{
			"bufferView":3,
			"componentType":5123,
			"count":3180,
			"type":"SCALAR"
		},
		{
			"bufferView":4,
			"componentType":5126,
			"count":201,
			"max":[
				8.333333333333334
			],
			"min":[
				0
			],
			"type":"SCALAR"
		},
		{
			"bufferView":5,
			"componentType":5126,
			"count":201,
			"type":"VEC4"
		}
	],
	"bufferViews":[
		{
			"buffer":0,
			"byteLength":18000,
			"byteOffset":0,
			"target":34962
		},
		{
			"buffer":0,
			"byteLength":18000,
			"byteOffset":18000,
			"target":34962
		},
		{
			"buffer":0,
			"byteLength":12000,
			"byteOffset":36000,
			"target":34962
		},
		{
			"buffer":0,
			"byteLength":6360,
			"byteOffset":48000,
			"target":34963
		},
		{
			"buffer":0,
			"byteLength":804,
			"byteOffset":54360
		},
		{
			"buffer":0,
			"byteLength":3216,
			"byteOffset":55164
		}
	],
	"buffers":[
		{
			"byteLength":58380,
			"uri":"WaterMill.bin"
		}
	]
}
